<?xml version="1.0" encoding="UTF-8" standalone="no"?>
<svg
   viewBox="0 0 22 22"
   version="1.1"
   id="svg3"
   sodipodi:docname="close-button.svg"
   inkscape:version="1.3 (0e150ed6c4, 2023-07-21)"
   xmlns:inkscape="http://www.inkscape.org/namespaces/inkscape"
   xmlns:sodipodi="http://sodipodi.sourceforge.net/DTD/sodipodi-0.dtd"
   xmlns="http://www.w3.org/2000/svg"
   xmlns:svg="http://www.w3.org/2000/svg">
  <sodipodi:namedview
     id="namedview3"
     pagecolor="#ffffff"
     bordercolor="#000000"
     borderopacity="0.25"
     inkscape:showpageshadow="2"
     inkscape:pageopacity="0.0"
     inkscape:pagecheckerboard="0"
     inkscape:deskcolor="#d1d1d1"
     inkscape:zoom="19.349013"
     inkscape:cx="10.956631"
     inkscape:cy="11.137519"
     inkscape:window-width="1920"
     inkscape:window-height="991"
     inkscape:window-x="-9"
     inkscape:window-y="-9"
     inkscape:window-maximized="1"
     inkscape:current-layer="svg3" />
  <defs
     id="defs2">
    <clipPath
       id="clipPath1">
      <path
         fill="#00f"
         fill-opacity=".514"
         d="m-7 1024.36h34v34h-34z"
         id="path1" />
    </clipPath>
    <clipPath
       id="clipPath2">
      <path
         fill="#aade87"
         fill-opacity=".472"
         d="m-6 1028.36h32v32h-32z"
         id="path2" />
    </clipPath>
  </defs>
  <path
     id="path4"
     style="color:#000000;fill:#4d4d4d;stroke-linecap:round;-inkscape-stroke:none;paint-order:markers stroke fill"
     d="M 5.0488281 3.6503906 A 1.20567 1.20567 0 0 0 4.1972656 4.0039062 A 1.20567 1.20567 0 0 0 4.1972656 5.7089844 L 9.5136719 11.025391 L 4.1972656 16.341797 A 1.20567 1.20567 0 0 0 4.1972656 18.046875 A 1.20567 1.20567 0 0 0 5.9023438 18.046875 L 11.21875 12.730469 L 16.535156 18.046875 A 1.20567 1.20567 0 0 0 18.240234 18.046875 A 1.20567 1.20567 0 0 0 18.240234 16.341797 L 12.923828 11.025391 L 18.240234 5.7089844 A 1.20567 1.20567 0 0 0 18.240234 4.0039062 A 1.20567 1.20567 0 0 0 16.535156 4.0039062 L 11.21875 9.3203125 L 5.9023438 4.0039062 A 1.20567 1.20567 0 0 0 5.0488281 3.6503906 z " />
</svg>
